<svg width="144" height="144" viewBox="0 0 144 144" fill="none" xmlns="http://www.w3.org/2000/svg">
<g clip-path="url(#clip0_207_212)">
<circle cx="72" cy="72" r="72" fill="#CC0000"/>
<path d="M109.278 71.8223C106.492 73.8303 103.703 74.8894 100.912 74.9998C98.0765 75.0477 95.4202 74.3487 92.9433 72.9028C90.4213 71.3943 88.2364 69.3579 86.3887 66.7935C83.0988 62.2277 81.7817 57.7607 82.4373 53.3925C83.1402 48.9904 85.806 45.1216 90.4349 41.7864L99.5036 35.2521L98.76 34.22C93.7126 27.2149 88.7327 25.482 83.8205 29.0215C81.7895 30.4849 80.4936 32.3213 79.9329 34.5307C79.3743 36.6435 79.7827 39.1522 81.1581 42.0569L73.6481 47.4682C70.5107 42.3173 69.3214 37.3306 70.0802 32.5081C70.8411 27.589 73.3707 23.581 77.6689 20.484C82.8645 16.7403 87.86 15.7064 92.6552 17.3822C97.4505 19.0581 101.989 22.8669 106.27 28.8088L126.888 57.4236L120.512 62.018L114.939 55.6287L114.443 55.986C114.981 58.9239 115.034 61.7362 114.602 64.4229C114.17 67.1097 112.396 69.5761 109.278 71.8223ZM104.679 62.4514C107.749 60.2393 109.161 57.369 108.915 53.8407C108.671 50.2157 107.245 46.4446 104.638 42.5272L96.4194 48.4489C93.7271 50.3888 92.2423 52.3613 91.965 54.3665C91.6898 56.2751 92.2959 58.2614 93.7831 60.3254C95.2702 62.3894 96.9852 63.6242 98.9278 64.0299C100.873 64.3389 102.79 63.8127 104.679 62.4514Z" fill="white"/>
</g>
<defs>
<clipPath id="clip0_207_212">
<rect width="144" height="144" fill="white"/>
</clipPath>
</defs>
</svg>
